<?xml version="1.0" encoding="UTF-8"?>
<svg id="Capa_2" data-name="Capa 2" xmlns="http://www.w3.org/2000/svg" viewBox="0 0 751.66 338.61">
  <defs>
    <style>
      .cls-1 {
        fill: #fff8e5;
      }

      .cls-2 {
        fill: #01595a;
      }

      .cls-3 {
        fill: #29b3b6;
      }
    </style>
  </defs>
  <g id="Capa_1-2" data-name="Capa 1">
    <g>
      <path class="cls-3" d="M260.24,2.44c-1.87-1.47-3.93-2.44-6.09-2.44H20.69C13.79,5.42,6.9,10.83,0,16.25c4.55.12,9.1.25,13.65.37-1.2.76-3.9,2.69-5.72,6.31-1.82,3.62-1.76,6.94-1.66,8.36h247.89c2.16,0,4.22-.98,6.09-2.44,8.48-6.64,8.48-19.76,0-26.4Z"/>
      <g>
        <path class="cls-2" d="M29.76,110.1c-5.64,0-9.95,3.04-9.95,9.2s4.3,9.2,9.95,9.2h11.8v7.87h-11.88c-12.25,0-19.82-6.46-19.82-17.07s7.05-16.33,18.48-16.77v-5.79c1.48.96,3.19,1.26,4.82,1.26s3.34-.3,4.75-1.26v13.36h-8.16ZM26.72,86.5c0-3.56,2.82-6.53,6.46-6.53s6.46,2.97,6.46,6.53-2.89,6.46-6.46,6.46-6.46-2.82-6.46-6.46Z"/>
        <path class="cls-2" d="M89.81,69.05v9.05h-17.52v46.39h-9.57v-46.39h-17.44v-9.05h44.53Z"/>
        <path class="cls-2" d="M107.55,69.05v32.8c0,9.87,5.05,14.4,11.65,14.4s11.65-4.53,11.65-14.4v-32.8h9.28v32.95c0,14.77-7.2,23.23-21.08,23.23s-21.08-8.46-21.08-23.23v-32.95h9.57Z"/>
        <path class="cls-2" d="M188.82,69.05l26.35,30.43v-30.43h9.57v55.44h-9.57v-10.02l-24.94-28.8v38.82h-9.57v-55.44h8.16Z"/>
        <path class="cls-2" d="M278.04,69.05v9.13h-28.87v11.43h20.34v9.13h-20.34v16.62h29.17v9.13h-38.74v-55.44h38.45Z"/>
        <path class="cls-2" d="M335.48,85.98h-10.61c-2.08-4.9-7.12-8.61-14.18-8.61-9.5,0-16.48,6.9-16.48,19.45s7.12,19.45,16.7,19.45c8.46,0,14.92-6.98,15.81-13.51h-16.18v-8.31h25.83v5.05c0,15.73-10.61,25.75-25.83,25.75s-26.27-10.98-26.27-28.43,10.91-28.5,26.27-28.5c13.66,0,22.12,7.57,24.94,17.66Z"/>
        <path class="cls-2" d="M396.94,96.81c0,17.81-10.98,28.43-26.42,28.43s-26.35-10.61-26.35-28.43,10.98-28.5,26.35-28.5,26.42,10.61,26.42,28.5ZM354.04,96.81c0,12.69,7.57,19.45,16.48,19.45s16.55-6.75,16.55-19.45-7.64-19.45-16.55-19.45-16.48,6.68-16.48,19.45Z"/>
        <path class="cls-2" d="M453.95,89.09h-10.17c-.52-5.86-5.64-11.65-14.32-11.65s-15.59,6.68-15.59,19.37,6.9,19.37,15.59,19.37,13.8-5.79,14.32-11.65h10.17c-.37,10.46-9.28,20.71-24.34,20.71s-25.61-10.32-25.61-28.43,10.46-28.5,25.46-28.5,24.12,10.24,24.49,20.78Z"/>
        <path class="cls-2" d="M473.92,69.05v55.44h-9.57v-55.44h9.57Z"/>
        <path class="cls-2" d="M536.33,96.81c0,17.81-10.98,28.43-26.42,28.43s-26.35-10.61-26.35-28.43,10.98-28.5,26.35-28.5,26.42,10.61,26.42,28.5ZM493.44,96.81c0,12.69,7.57,19.45,16.48,19.45s16.55-6.75,16.55-19.45-7.64-19.45-16.55-19.45-16.48,6.68-16.48,19.45Z"/>
        <path class="cls-2" d="M29.98,141.05c18.63,0,29.69,10.24,29.69,27.76s-11.06,27.68-29.69,27.68H13.58v-55.44h16.4ZM29.54,187.66c12.39,0,20.19-6.75,20.19-18.85s-7.79-18.85-20.19-18.85h-6.38v37.7h6.38Z"/>
        <path class="cls-2" d="M107.77,141.05v9.13h-28.87v11.43h20.34v9.13h-20.34v16.62h29.17v9.13h-38.74v-55.44h38.45Z"/>
        <path class="cls-2" d="M137.53,141.05c14.1,0,22.79,7.57,22.79,20.04s-8.68,19.74-22.79,19.74h-8.76v15.66h-9.57v-55.44h18.33ZM137.46,173.26c7.35,0,12.91-4.01,12.91-12.17s-5.57-12.17-12.91-12.17h-8.68v24.34h8.68Z"/>
        <path class="cls-2" d="M209.16,141.05v9.13h-28.87v11.43h20.34v9.13h-20.34v16.62h29.17v9.13h-38.74v-55.44h38.45Z"/>
        <path class="cls-2" d="M228.75,141.05l26.35,30.43v-30.43h9.57v55.44h-9.57v-10.02l-24.94-28.8v38.82h-9.57v-55.44h8.16Z"/>
        <path class="cls-2" d="M295.93,141.05c18.63,0,29.69,10.24,29.69,27.76s-11.06,27.68-29.69,27.68h-16.4v-55.44h16.4ZM295.48,187.66c12.39,0,20.19-6.75,20.19-18.85s-7.79-18.85-20.19-18.85h-6.38v37.7h6.38Z"/>
        <path class="cls-2" d="M373.71,141.05v9.13h-28.87v11.43h20.34v9.13h-20.34v16.62h29.17v9.13h-38.74v-55.44h38.45Z"/>
        <path class="cls-2" d="M428.71,141.05c18.63,0,29.69,10.24,29.69,27.76s-11.06,27.68-29.69,27.68h-16.4v-55.44h16.4ZM428.27,187.66c12.39,0,20.19-6.75,20.19-18.85s-7.79-18.85-20.19-18.85h-6.38v37.7h6.38Z"/>
        <path class="cls-2" d="M506.5,141.05v9.13h-28.87v11.43h20.34v9.13h-20.34v16.62h29.17v9.13h-38.74v-55.44h38.45Z"/>
        <path class="cls-2" d="M548.95,141.05l16.55,43.34,16.48-43.34h9.87l-21.15,55.44h-10.76l-21.15-55.44h10.17Z"/>
        <path class="cls-2" d="M646.48,168.81c0,17.81-10.98,28.43-26.42,28.43s-26.35-10.61-26.35-28.43,10.98-28.5,26.35-28.5,26.42,10.61,26.42,28.5ZM603.58,168.81c0,12.69,7.57,19.45,16.48,19.45s16.55-6.75,16.55-19.45-7.64-19.45-16.55-19.45-16.48,6.68-16.48,19.45Z"/>
        <path class="cls-2" d="M696.14,156.79h-9.95c0-4.6-3.64-8.02-10.24-8.02-6.01,0-9.72,3.04-9.72,6.83s2.08,6.01,8.02,7.57l7.2,1.86c10.84,2.82,15.81,7.42,15.81,16.18,0,9.28-6.98,16.03-20.78,16.03s-21.45-7.2-21.45-17.74h9.95c0,5.71,4.38,10.02,11.58,10.02s10.76-3.56,10.76-8.16c0-3.93-2.15-6.09-8.39-7.57l-6.9-1.63c-11.65-2.75-15.81-8.31-15.81-16.4,0-8.91,7.12-15.44,19.89-15.44s20.04,6.75,20.04,16.48Z"/>
        <path class="cls-2" d="M31.91,213.05c14.1,0,22.79,7.57,22.79,20.04s-8.68,19.74-22.79,19.74h-8.76v15.66h-9.57v-55.44h18.33ZM31.84,245.26c7.35,0,12.91-4.01,12.91-12.17s-5.57-12.17-12.91-12.17h-8.68v24.34h8.68Z"/>
        <path class="cls-2" d="M86.99,213.05l21.45,55.44h-9.95l-4.16-11.06h-25.83l-4.16,11.06h-9.65l21.52-55.44h10.76ZM90.92,248.31l-9.5-25.38-9.5,25.38h19Z"/>
        <path class="cls-2" d="M134.79,213.05c13.06,0,21.75,7.35,21.75,19.52,0,7.64-3.49,13.51-9.5,16.77l11.06,19.15h-11.28l-9.5-16.4c-.89.07-1.63.07-2.52.07h-10.09v16.33h-9.57v-55.44h19.67ZM133.38,243.11c7.64,0,13.29-3.41,13.29-10.54s-5.64-10.46-13.29-10.46h-8.68v21h8.68Z"/>
        <path class="cls-2" d="M194.09,213.05l21.45,55.44h-9.95l-4.16-11.06h-25.83l-4.16,11.06h-9.65l21.52-55.44h10.76ZM198.02,248.31l-9.5-25.38-9.5,25.38h19Z"/>
        <path class="cls-2" d="M297.48,233.09h-10.17c-.52-5.86-5.64-11.65-14.32-11.65s-15.59,6.68-15.59,19.37,6.9,19.37,15.59,19.37,13.8-5.79,14.32-11.65h10.17c-.37,10.46-9.28,20.71-24.34,20.71s-25.61-10.32-25.61-28.43,10.46-28.5,25.46-28.5,24.12,10.24,24.49,20.78Z"/>
        <path class="cls-2" d="M332,213.05l21.45,55.44h-9.95l-4.16-11.06h-25.83l-4.16,11.06h-9.65l21.52-55.44h10.76ZM335.93,248.31l-9.5-25.38-9.5,25.38h19Z"/>
        <path class="cls-2" d="M376.54,213.05c18.63,0,29.69,10.24,29.69,27.76s-11.06,27.68-29.69,27.68h-16.4v-55.44h16.4ZM376.09,259.66c12.39,0,20.19-6.75,20.19-18.85s-7.79-18.85-20.19-18.85h-6.38v37.7h6.38Z"/>
        <path class="cls-2" d="M441.11,213.05l21.45,55.44h-9.95l-4.16-11.06h-25.83l-4.16,11.06h-9.65l21.52-55.44h10.76ZM445.04,248.31l-9.5-25.38-9.5,25.38h19Z"/>
        <path class="cls-2" d="M544.5,233.09h-10.17c-.52-5.86-5.64-11.65-14.32-11.65s-15.59,6.68-15.59,19.37,6.9,19.37,15.59,19.37,13.8-5.79,14.32-11.65h10.17c-.37,10.46-9.28,20.71-24.34,20.71s-25.61-10.32-25.61-28.43,10.46-28.5,25.46-28.5,24.12,10.24,24.49,20.78Z"/>
        <path class="cls-2" d="M603.96,240.81c0,17.81-10.98,28.43-26.42,28.43s-26.35-10.61-26.35-28.43,10.98-28.5,26.35-28.5,26.42,10.61,26.42,28.5ZM561.06,240.81c0,12.69,7.57,19.45,16.48,19.45s16.55-6.75,16.55-19.45-7.64-19.45-16.55-19.45-16.48,6.68-16.48,19.45Z"/>
        <path class="cls-2" d="M653.61,228.79h-9.95c0-4.6-3.64-8.02-10.24-8.02-6.01,0-9.72,3.04-9.72,6.83s2.08,6.01,8.02,7.57l7.2,1.86c10.84,2.82,15.81,7.42,15.81,16.18,0,9.28-6.98,16.03-20.78,16.03s-21.45-7.2-21.45-17.74h9.95c0,5.71,4.38,10.02,11.58,10.02s10.76-3.56,10.76-8.16c0-3.93-2.15-6.09-8.39-7.57l-6.9-1.63c-11.65-2.75-15.81-8.31-15.81-16.4,0-8.91,7.12-15.44,19.89-15.44s20.04,6.75,20.04,16.48Z"/>
        <path class="cls-2" d="M691.47,213.05l21.45,55.44h-9.95l-4.16-11.06h-25.83l-4.16,11.06h-9.65l21.52-55.44h10.76ZM695.4,248.31l-9.5-25.38-9.5,25.38h19Z"/>
        <path class="cls-2" d="M731.77,239.33c5.64,0,9.95-3.04,9.95-9.2s-4.3-9.2-9.95-9.2h-11.8v-7.87h11.88c12.25,0,19.82,6.46,19.82,17.07s-7.05,16.33-18.48,16.77v5.79c-1.48-.96-3.19-1.26-4.82-1.26s-3.34.3-4.75,1.26v-13.36h8.16ZM734.82,262.93c0,3.56-2.82,6.53-6.46,6.53s-6.46-2.97-6.46-6.53,2.89-6.46,6.46-6.46,6.46,2.82,6.46,6.46Z"/>
      </g>
      <g>
        <path class="cls-1" d="M47.69,12.29h-1.84c0-1.3-1.01-2.3-2.87-2.3-1.75,0-2.79.92-2.79,2.04s.59,1.71,2.24,2.15l1.95.53c2.41.64,3.6,1.75,3.6,3.82,0,2.2-1.63,3.8-4.91,3.8s-5.05-1.73-5.05-4.23h1.84c0,1.56,1.23,2.77,3.23,2.77s3.05-1.03,3.05-2.31c0-1.19-.59-1.82-2.3-2.26l-1.87-.46c-2.66-.66-3.64-1.91-3.64-3.8,0-2.08,1.71-3.62,4.67-3.62s4.68,1.6,4.68,3.86Z"/>
        <path class="cls-1" d="M59.16,17.23c0,2.96-1.89,5.14-4.96,5.14s-4.98-2.19-4.98-5.14,1.89-5.14,4.98-5.14,4.96,2.19,4.96,5.14ZM50.97,17.23c0,2.17,1.29,3.56,3.23,3.56s3.21-1.4,3.21-3.56-1.29-3.56-3.21-3.56-3.23,1.4-3.23,3.56Z"/>
        <path class="cls-1" d="M62.3,8.03v14.13h-1.65v-14.13h1.65Z"/>
        <path class="cls-1" d="M66.01,12.29v5.22c0,2.11.96,3.27,2.41,3.27,1.32,0,2.35-1.12,2.5-2.81v-5.68h1.65v9.87h-1.65v-1.49c-.51.99-1.52,1.71-2.96,1.71-2.09,0-3.6-1.64-3.6-4.57v-5.51h1.65Z"/>
        <path class="cls-1" d="M83.59,15.76h-1.76c-.13-1.19-1.29-2.22-2.75-2.22-1.84,0-3.14,1.43-3.14,3.69s1.3,3.67,3.14,3.67c1.47,0,2.63-1.01,2.75-2.22h1.76c-.17,2-1.98,3.69-4.52,3.69-2.94,0-4.89-1.98-4.89-5.14s1.95-5.14,4.89-5.14c2.54,0,4.35,1.67,4.52,3.67Z"/>
        <path class="cls-1" d="M86.97,9.94c0,.62-.48,1.14-1.14,1.14s-1.14-.51-1.14-1.14.46-1.14,1.14-1.14,1.14.5,1.14,1.14ZM86.66,12.16v9.99h-1.65v-9.99c.24.15.48.2.83.2.37,0,.62-.07.83-.2Z"/>
        <path class="cls-1" d="M98.05,17.23c0,2.96-1.89,5.14-4.96,5.14s-4.98-2.19-4.98-5.14,1.89-5.14,4.98-5.14,4.96,2.19,4.96,5.14ZM89.86,17.23c0,2.17,1.29,3.56,3.23,3.56s3.21-1.4,3.21-3.56-1.29-3.56-3.21-3.56-3.23,1.4-3.23,3.56Z"/>
        <path class="cls-1" d="M101.25,12.29v1.58c.51-1.01,1.62-1.78,3.14-1.78,2.19,0,3.77,1.62,3.77,4.56v5.51h-1.65v-5.22c0-2.11-1.03-3.27-2.55-3.27s-2.7,1.29-2.7,3.25v5.24h-1.65v-9.87h1.65Z"/>
        <path class="cls-1" d="M119.14,17.11v.62h-8.03c.11,1.84,1.34,3.07,3.18,3.07,1.34,0,2.31-.51,2.77-1.4h1.8c-.64,1.75-2.3,2.94-4.57,2.94-2.96,0-4.96-2.02-4.96-5.14s2-5.09,4.91-5.09,4.91,1.93,4.91,5ZM117.38,16.37c-.2-1.69-1.47-2.72-3.14-2.72s-2.88,1.21-3.1,2.72h6.25Z"/>
        <path class="cls-1" d="M127.94,15.21h-1.71c-.02-.92-.81-1.64-2.09-1.64s-1.95.59-1.95,1.29c0,.66.26,1.07,1.58,1.36l1.58.35c2.09.44,2.81,1.49,2.81,2.87,0,1.78-1.36,2.94-3.84,2.94-2.77,0-4.13-1.43-4.13-3.27h1.69c.02,1.01.81,1.76,2.52,1.76,1.42,0,2.06-.61,2.06-1.4s-.44-1.19-1.69-1.45l-1.67-.35c-1.98-.42-2.63-1.47-2.63-2.81,0-1.54,1.29-2.77,3.69-2.77s3.79,1.38,3.79,3.12Z"/>
        <path class="cls-1" d="M145.19,8.03v14.13h-1.65v-1.6c-.7,1.14-1.87,1.82-3.53,1.82-2.7,0-4.56-2-4.56-5.14s1.86-5.14,4.56-5.14c1.65,0,2.83.66,3.53,1.8v-5.86h1.65ZM140.4,20.85c1.93,0,3.14-1.43,3.14-3.66s-1.21-3.66-3.14-3.66-3.2,1.49-3.2,3.66,1.3,3.66,3.2,3.66Z"/>
        <path class="cls-1" d="M156.51,17.11v.62h-8.03c.11,1.84,1.34,3.07,3.18,3.07,1.34,0,2.31-.51,2.77-1.4h1.8c-.64,1.75-2.3,2.94-4.57,2.94-2.96,0-4.96-2.02-4.96-5.14s2-5.09,4.91-5.09,4.91,1.93,4.91,5ZM154.75,16.37c-.2-1.69-1.47-2.72-3.14-2.72s-2.88,1.21-3.1,2.72h6.25Z"/>
        <path class="cls-1" d="M171.59,15.21h-1.71c-.02-.92-.81-1.64-2.09-1.64s-1.95.59-1.95,1.29c0,.66.26,1.07,1.58,1.36l1.58.35c2.09.44,2.81,1.49,2.81,2.87,0,1.78-1.36,2.94-3.84,2.94-2.77,0-4.13-1.43-4.13-3.27h1.69c.02,1.01.81,1.76,2.52,1.76,1.42,0,2.06-.61,2.06-1.4s-.44-1.19-1.69-1.45l-1.67-.35c-1.98-.42-2.63-1.47-2.63-2.81,0-1.54,1.29-2.77,3.69-2.77s3.79,1.38,3.79,3.12Z"/>
        <path class="cls-1" d="M183,17.23c0,2.96-1.89,5.14-4.96,5.14s-4.98-2.19-4.98-5.14,1.89-5.14,4.98-5.14,4.96,2.19,4.96,5.14ZM174.81,17.23c0,2.17,1.29,3.56,3.23,3.56s3.21-1.4,3.21-3.56-1.29-3.56-3.21-3.56-3.23,1.4-3.23,3.56Z"/>
        <path class="cls-1" d="M189.3,7.87v1.41h-1.21c-.88,0-1.27.42-1.27,1.23v1.78h2.09v1.41h-2.09v8.45h-1.65v-8.45h-1.49v-1.41h1.49v-1.8c0-1.65.99-2.63,2.68-2.63h1.45Z"/>
        <path class="cls-1" d="M191.55,12.29v-3.16h1.65v3.16h2.28v1.41h-2.28v8.45h-1.65v-8.45h-1.97v-1.41h1.97Z"/>
        <path class="cls-1" d="M197.53,12.29l2.42,7.64,2.63-7.64h1.51l2.61,7.66,2.44-7.66h1.6l-3.12,9.87h-1.6l-2.72-7.68-2.7,7.68h-1.58l-3.11-9.87h1.62Z"/>
        <path class="cls-1" d="M219.65,16.26v5.9h-1.65v-1.64c-.72,1.08-2.04,1.82-3.77,1.82-2.02,0-3.29-1.08-3.29-2.72s.99-2.76,3.64-3.16l3.42-.53c-.02-1.43-.92-2.28-2.5-2.28s-2.26.68-2.44,1.71h-1.71c.13-1.76,1.54-3.25,4.13-3.25s4.17,1.54,4.17,4.15ZM214.49,20.78c1.95,0,3.51-1.27,3.51-3.16v-.28l-3.03.48c-1.82.28-2.31.9-2.31,1.69,0,.73.66,1.27,1.84,1.27Z"/>
        <path class="cls-1" d="M223.44,12.29v1.73c.61-1.14,1.82-1.93,3.73-1.93v1.76h-.62c-1.97,0-3.1,1.21-3.1,3.29v5.02h-1.65v-9.87h1.65Z"/>
        <path class="cls-1" d="M237.16,17.11v.62h-8.03c.11,1.84,1.34,3.07,3.18,3.07,1.34,0,2.31-.51,2.77-1.4h1.8c-.64,1.75-2.3,2.94-4.57,2.94-2.96,0-4.96-2.02-4.96-5.14s2-5.09,4.91-5.09,4.91,1.93,4.91,5ZM235.4,16.37c-.2-1.69-1.47-2.72-3.14-2.72s-2.88,1.21-3.1,2.72h6.25Z"/>
      </g>
      <g>
        <path class="cls-2" d="M13.98,307.7l.18-1.27h10.41l-.21,1.27c-2.4,0-4.34.92-4.06,2.22l3.53,16.87h.21l7.98-16.87c.6-1.16-.88-2.22-3.32-2.22l.25-1.27h8.47l-.18,1.27c-1.94,0-2.68.99-3.28,2.22l-10.13,20.26c-.78.64-1.62.99-2.51,1.09l-4.66-21.35c-.25-1.31-.74-2.22-2.68-2.22Z"/>
        <path class="cls-2" d="M34.48,323.76c0-5.79,3.49-10.34,8.72-10.34,4.2,0,6.32,2.82,6.32,7.34,0,5.58-3.21,10.55-8.58,10.55-4.06,0-6.46-2.82-6.46-7.55ZM46.27,321.21c0-3.56-1.24-6.07-3.78-6.07-3.21,0-4.76,3.74-4.76,8.08,0,3.95,1.27,6.35,3.71,6.35,3.49,0,4.84-4.59,4.84-8.36Z"/>
        <path class="cls-2" d="M53.04,326.72l2.33-16.87c.28-1.91-.14-2.22-2.08-2.22l.18-1.13,4.52-1.41h1.13l-2.89,21.21c-.28,1.8-.35,2.58.35,2.58.56,0,1.48-.53,2.33-1.34l.42.99c-.71.99-2.44,2.75-4.27,2.75-2.58,0-2.33-2.19-2.01-4.55Z"/>
        <path class="cls-2" d="M67.44,315.29l-1.41,10.2c-.21,1.41-.39,3.49,1.34,3.49,1.13,0,2.22-.88,3.11-1.84l.67.78c-1.45,1.94-3.21,3.42-5.37,3.42-2.36,0-3.46-1.8-3-5.15l1.52-10.91h-2.33l.14-1.09c2.54-.39,4.09-2.65,4.73-4.98h1.48l-.67,4.69h4.98l-.21,1.38h-4.98Z"/>
        <path class="cls-2" d="M74.85,327.32l1.24-8.54c.28-2.05-.11-2.51-1.98-2.51l.18-1.13,4.06-1.24h1.48l-1.76,12.85c-.25,1.76-.14,2.19.49,2.19.49,0,1.09-.25,1.87-.88l.49.92c-.92,1.13-2.47,2.33-4.16,2.33-2.05,0-2.22-1.66-1.91-3.99ZM76.72,308.23c0-1.38,1.31-2.44,2.54-2.44,1.13,0,1.94.81,1.94,1.91,0,1.41-1.24,2.47-2.54,2.47-1.13,0-1.94-.85-1.94-1.94Z"/>
        <path class="cls-2" d="M83.74,323.76c0-5.79,3.49-10.34,8.72-10.34,4.2,0,6.32,2.82,6.32,7.34,0,5.58-3.21,10.55-8.58,10.55-4.06,0-6.46-2.82-6.46-7.55ZM95.53,321.21c0-3.56-1.24-6.07-3.78-6.07-3.21,0-4.76,3.74-4.76,8.08,0,3.95,1.27,6.35,3.71,6.35,3.49,0,4.84-4.59,4.84-8.36Z"/>
        <path class="cls-2" d="M103.11,331.17c-1.76.42-2.58-.64-2.58-1.84,0-1.34.95-2.4,2.29-2.4,1.24,0,2.15.88,2.15,2.58,0,2.58-1.91,4.69-4.62,5.75l-.39-.99c1.62-.56,2.82-1.94,3.14-3.11Z"/>
        <path class="cls-2" d="M117.34,326.72l2.33-16.87c.28-1.91-.14-2.22-2.08-2.22l.18-1.13,4.52-1.41h1.13l-2.89,21.21c-.28,1.8-.35,2.58.35,2.58.56,0,1.48-.53,2.33-1.34l.42.99c-.71.99-2.44,2.75-4.27,2.75-2.58,0-2.33-2.19-2.01-4.55Z"/>
        <path class="cls-2" d="M126.33,324.43c0-5.75,2.79-11.01,7.8-11.01,2.05,0,3.53.74,4.45,1.62l1.13-1.13h1.62l-1.73,12.49c-.14,1.02-.35,2.54.49,2.54.53,0,1.48-.71,2.12-1.31l.46.95c-.63.81-2.22,2.72-4.2,2.72-1.45,0-2.29-1.02-1.87-3.78h-.21c-1.24,2.08-2.75,3.78-5.29,3.78-3.11,0-4.76-2.51-4.76-6.88ZM132.26,328.87c2.19,0,3.63-2.4,4.41-3.64l1.16-8.47c-.74-.78-1.87-1.45-3.39-1.45-3.64,0-4.87,4.94-4.87,9,0,3,.92,4.55,2.68,4.55Z"/>
        <path class="cls-2" d="M153.58,330l1.91-14.61h-2.47l.11-.99,2.54-.49.35-2.61c.57-4.31,2.61-6.32,5.82-6.32,1.16,0,1.94.25,2.54.6l-.56,4.13h-.99c-.04-1.52-.32-2.79-1.91-2.79-2.01,0-2.75,2.05-2.75,3.95,0,1.2.32,2.12.6,3.04h4.31l-.18,1.48h-4.34l-2.01,15.42c-.67,5.05-3.64,7.2-7.34,7.8l-.28-1.09c3.11-1.02,4.09-3.32,4.66-7.52Z"/>
        <path class="cls-2" d="M165.47,325.8l1.02-7.31c.25-1.91-.14-2.22-2.01-2.22l.14-.99,4.41-1.38h1.06l-1.41,11.08c-.21,1.73-.25,3.81,1.87,3.81,1.66,0,3.35-1.31,4.52-3.46l.92-6.85c.25-1.91-.07-2.22-2.01-2.22l.14-.99,4.41-1.38h1.17l-1.62,12.18c-.25,1.87.04,2.44,2.15,2.33l-.18.99-4.06,1.91-.92-3.74h-.25c-1.02,1.83-2.82,3.74-5.37,3.74s-4.48-1.98-3.99-5.51Z"/>
        <path class="cls-2" d="M183.25,323.79c0-5.61,3.39-10.38,8.82-10.38,2.86,0,4.48,1.31,4.48,3.53,0,3.21-3.53,5.61-10.13,5.51v.67c0,3.67,1.38,5.65,4.06,5.65,2.37,0,4.02-1.48,4.98-3.04l.78.6c-1.55,3.11-3.99,4.98-6.92,4.98-3.56,0-6.07-2.75-6.07-7.52ZM193.59,317.23c0-1.31-.81-2.12-2.29-2.12-2.86,0-4.31,3-4.73,6.07,3.67-.14,7.02-1.31,7.02-3.95Z"/>
        <path class="cls-2" d="M199.34,316.24l.14-1.09,4.41-1.69.53,4.31h.18c.99-1.87,2.33-4.34,5.19-4.34.85,0,1.62.28,1.8.46l-.99,4.91h-.95c-.04-1.16-.42-1.84-1.62-1.84-1.62,0-3.53,2.19-4.13,5.72l-1.13,8.19h-3.07l1.69-12.25c.28-1.83-.32-2.36-2.05-2.36Z"/>
        <path class="cls-2" d="M211.2,330.04l11.86-14.68h-3.81c-2.43,0-3.88.71-4.98,3.81h-1.17l1.34-5.26h12.42l.11.85-11.65,14.61h4.06c2.08,0,3.88-.71,5.05-3.95h1.13l-1.24,5.44h-13.02l-.11-.81Z"/>
        <path class="cls-2" d="M228.6,324.43c0-5.75,2.79-11.01,7.8-11.01,2.05,0,3.53.74,4.45,1.62l1.13-1.13h1.62l-1.73,12.49c-.14,1.02-.35,2.54.49,2.54.53,0,1.48-.71,2.12-1.31l.46.95c-.63.81-2.22,2.72-4.2,2.72-1.45,0-2.29-1.02-1.87-3.78h-.21c-1.24,2.08-2.75,3.78-5.29,3.78-3.11,0-4.76-2.51-4.76-6.88ZM234.52,328.87c2.19,0,3.63-2.4,4.41-3.64l1.16-8.47c-.74-.78-1.87-1.45-3.39-1.45-3.64,0-4.87,4.94-4.87,9,0,3,.92,4.55,2.68,4.55Z"/>
        <path class="cls-2" d="M263.96,335.26l1.2-7.55-.21-.07c-1.41,2.47-3.25,3.67-5.08,3.67-3.78,0-4.87-3.07-4.87-6.56,0-6.35,2.61-11.33,7.94-11.33,1.62,0,3.18.49,4.2,1.62l1.41-1.27h1.45l-2.93,21.49c-.25,1.55.81,1.84,2.12,1.84l-.18,1.09h-7.83l.18-1.09c1.16,0,2.4-.39,2.61-1.84ZM265.33,325.2l1.13-8.36c-.78-.95-1.94-1.48-3.35-1.48-3.64,0-4.87,4.76-4.87,9.14,0,2.33.6,4.38,2.51,4.38,2.19,0,3.56-1.94,4.59-3.67Z"/>
        <path class="cls-2" d="M273.62,325.8l1.02-7.31c.25-1.91-.14-2.22-2.01-2.22l.14-.99,4.41-1.38h1.06l-1.41,11.08c-.21,1.73-.25,3.81,1.87,3.81,1.66,0,3.35-1.31,4.52-3.46l.92-6.85c.25-1.91-.07-2.22-2.01-2.22l.14-.99,4.41-1.38h1.17l-1.62,12.18c-.25,1.87.04,2.44,2.15,2.33l-.18.99-4.06,1.91-.92-3.74h-.25c-1.02,1.83-2.82,3.74-5.37,3.74s-4.48-1.98-3.99-5.51Z"/>
        <path class="cls-2" d="M291.41,323.79c0-5.61,3.39-10.38,8.82-10.38,2.86,0,4.48,1.31,4.48,3.53,0,3.21-3.53,5.61-10.13,5.51v.67c0,3.67,1.38,5.65,4.06,5.65,2.37,0,4.02-1.48,4.98-3.04l.78.6c-1.55,3.11-3.99,4.98-6.92,4.98-3.56,0-6.07-2.75-6.07-7.52ZM301.75,317.23c0-1.31-.81-2.12-2.29-2.12-2.86,0-4.31,3-4.73,6.07,3.67-.14,7.02-1.31,7.02-3.95Z"/>
        <path class="cls-2" d="M315.72,327.32l1.24-8.54c.28-2.05-.11-2.51-1.98-2.51l.18-1.13,4.06-1.24h1.48l-1.76,12.85c-.25,1.76-.14,2.19.49,2.19.49,0,1.09-.25,1.87-.88l.49.92c-.92,1.13-2.47,2.33-4.16,2.33-2.05,0-2.22-1.66-1.91-3.99ZM317.59,308.23c0-1.38,1.31-2.44,2.54-2.44,1.13,0,1.94.81,1.94,1.91,0,1.41-1.24,2.47-2.54,2.47-1.13,0-1.94-.85-1.94-1.94Z"/>
        <path class="cls-2" d="M344.55,328.31l1.09-8.65c.25-1.73.04-3.78-2.15-3.78-1.66,0-2.96,1.24-4.2,3.39l-1.41,11.58h-3.18l1.41-11.19c.21-1.73.04-3.78-2.05-3.78-1.66,0-3.11,1.31-4.27,3.46l-1.55,11.51h-3.04l1.59-12.25c.25-1.98-.07-2.36-2.15-2.36l.11-.99,4.2-1.84.92,3.71h.18c1.24-2.15,2.75-3.71,5.19-3.71s3.92,1.48,4.09,3.71h.18c1.06-2.05,2.82-3.71,5.26-3.71,3.11,0,4.52,2.33,4.13,5.29l-1.16,8.89c-.11.88,0,1.34.53,1.34.46,0,1.38-.49,2.26-1.31l.42.95c-1.48,1.84-2.82,2.72-4.38,2.72-2.01,0-2.19-1.62-2.01-3Z"/>
        <path class="cls-2" d="M353.62,335.26l2.29-16.48c.21-1.59,0-3-2.33-2.82l.14-1.09,4.87-1.45.35,3.74h.25c1.52-2.51,3.11-3.74,5.37-3.74,3.49,0,4.66,3,4.66,6.74,0,5.72-2.43,11.15-7.91,11.15-1.73,0-3.04-.56-3.92-1.27l-.74,5.4c-.18,1.27,1.13,1.66,2.19,1.66l-.14,1.09h-7.87l.18-1.09c1.24,0,2.43-.49,2.61-1.84ZM361,329.4c3.71,0,4.94-4.55,4.94-9.28,0-1.94-.25-4.24-2.58-4.24-1.94,0-3.25,1.62-4.48,3.6l-1.16,8.4c.88.99,2.01,1.52,3.28,1.52Z"/>
        <path class="cls-2" d="M373.17,325.8l1.02-7.31c.25-1.91-.14-2.22-2.01-2.22l.14-.99,4.41-1.38h1.06l-1.41,11.08c-.21,1.73-.25,3.81,1.87,3.81,1.66,0,3.35-1.31,4.52-3.46l.92-6.85c.25-1.91-.07-2.22-2.01-2.22l.14-.99,4.41-1.38h1.17l-1.62,12.18c-.25,1.87.04,2.44,2.15,2.33l-.18.99-4.06,1.91-.92-3.74h-.25c-1.02,1.83-2.82,3.74-5.37,3.74s-4.48-1.98-3.99-5.51Z"/>
        <path class="cls-2" d="M391.69,326.72l2.33-16.87c.28-1.91-.14-2.22-2.08-2.22l.18-1.13,4.52-1.41h1.13l-2.89,21.21c-.28,1.8-.35,2.58.35,2.58.56,0,1.48-.53,2.33-1.34l.42.99c-.71.99-2.44,2.75-4.27,2.75-2.58,0-2.33-2.19-2.01-4.55Z"/>
        <path class="cls-2" d="M399.6,329.69l1.09-4.24h.99c-.25,2.54,1.09,4.16,3.95,4.16,2.29,0,3.42-1.02,3.42-2.61,0-4.02-7.76-3.6-7.76-8.68,0-2.96,2.58-4.91,6.18-4.91,1.73,0,3.71.53,5.08,1.38l-1.06,4.02h-1.09c.18-2.75-1.24-3.71-3.11-3.81-2.05-.11-3.28.81-3.28,2.15,0,3.39,7.83,3.42,7.83,8.72,0,2.75-2.12,5.44-6.53,5.44-2.51,0-4.66-.92-5.72-1.62Z"/>
        <path class="cls-2" d="M414.74,324.43c0-5.75,2.79-11.01,7.8-11.01,2.05,0,3.53.74,4.45,1.62l1.13-1.13h1.62l-1.73,12.49c-.14,1.02-.35,2.54.49,2.54.53,0,1.48-.71,2.12-1.31l.46.95c-.63.81-2.22,2.72-4.2,2.72-1.45,0-2.29-1.02-1.87-3.78h-.21c-1.23,2.08-2.75,3.78-5.29,3.78-3.11,0-4.76-2.51-4.76-6.88ZM420.67,328.87c2.19,0,3.63-2.4,4.41-3.64l1.16-8.47c-.74-.78-1.87-1.45-3.39-1.45-3.64,0-4.87,4.94-4.87,9,0,3,.92,4.55,2.68,4.55Z"/>
        <path class="cls-2" d="M446.53,315.29l-1.41,10.2c-.21,1.41-.39,3.49,1.34,3.49,1.13,0,2.22-.88,3.11-1.84l.67.78c-1.45,1.94-3.21,3.42-5.37,3.42-2.36,0-3.46-1.8-3-5.15l1.52-10.91h-2.33l.14-1.09c2.54-.39,4.09-2.65,4.73-4.98h1.48l-.67,4.69h4.98l-.21,1.38h-4.98Z"/>
        <path class="cls-2" d="M454.22,325.8l1.02-7.31c.25-1.91-.14-2.22-2.01-2.22l.14-.99,4.41-1.38h1.06l-1.41,11.08c-.21,1.73-.25,3.81,1.87,3.81,1.66,0,3.35-1.31,4.52-3.46l.92-6.85c.25-1.91-.07-2.22-2.01-2.22l.14-.99,4.41-1.38h1.17l-1.62,12.18c-.25,1.87.04,2.44,2.15,2.33l-.18.99-4.06,1.91-.92-3.74h-.25c-1.02,1.83-2.82,3.74-5.37,3.74s-4.48-1.98-3.99-5.51Z"/>
        <path class="cls-2" d="M490.43,328.31l1.2-8.65c.32-2.51-.49-3.78-2.22-3.78-1.91,0-3.56,1.83-4.76,4.34l-1.48,10.62h-3.04l1.66-12.25c.25-1.98-.21-2.65-2.36-2.65l.14-1.09,4.91-1.41.28,4.24h.18c1.16-2.08,3.25-4.27,6.07-4.27s4.31,2.08,3.85,5.29l-1.24,8.72c-.14,1.2.11,1.52.6,1.52.46,0,1.09-.25,1.91-.88l.49.92c-.6.71-2.22,2.33-4.13,2.33s-2.26-1.38-2.05-3Z"/>
        <path class="cls-2" d="M499.11,323.79c0-5.61,3.39-10.38,8.82-10.38,2.86,0,4.48,1.31,4.48,3.53,0,3.21-3.53,5.61-10.13,5.51v.67c0,3.67,1.38,5.65,4.06,5.65,2.37,0,4.02-1.48,4.98-3.04l.78.6c-1.55,3.11-3.99,4.98-6.92,4.98-3.56,0-6.07-2.75-6.07-7.52ZM509.45,317.23c0-1.31-.81-2.12-2.29-2.12-2.86,0-4.31,3-4.73,6.07,3.67-.14,7.02-1.31,7.02-3.95Z"/>
        <path class="cls-2" d="M513.22,334.24c0-1.98,1.31-3.56,3.46-4.8-.92-.56-1.34-1.2-1.34-2.08,0-1.48,1.24-2.51,2.72-3.21-1.38-.92-2.15-2.4-2.15-4.31,0-3.88,3.18-6.42,6.99-6.42,1.27,0,2.4.28,3.32.85.71-.64,1.02-1.34,1.02-2.19,0-.53-.18-.92-.53-1.2l.14-.99h2.93c.11.14.25.6.25,1.09,0,1.73-1.27,3.04-3.04,3.92.85.85,1.34,2.05,1.34,3.56,0,3.78-3,6.53-6.99,6.53-.78,0-1.45-.11-2.08-.28-.99.46-1.31.92-1.31,1.38,0,.88.95,1.24,4.06,2.29,3.35,1.13,5.51,2.12,5.51,4.62,0,3.07-3.14,5.61-8.01,5.61-3.88,0-6.28-1.62-6.28-4.38ZM520.42,336.6c2.82,0,4.62-1.02,4.62-2.58,0-1.31-1.2-1.76-4.41-2.89-1.13-.42-2.08-.78-2.86-1.13-1.31.88-2.08,1.98-2.08,3.39,0,2.05,1.83,3.21,4.73,3.21ZM525.22,318.57c0-2.01-.81-3.78-2.72-3.78-2.26,0-3.49,2.54-3.49,4.91,0,2.12.92,3.92,2.82,3.92,2.22,0,3.39-2.54,3.39-5.05Z"/>
        <path class="cls-2" d="M530.9,323.76c0-5.79,3.49-10.34,8.72-10.34,4.2,0,6.32,2.82,6.32,7.34,0,5.58-3.21,10.55-8.58,10.55-4.06,0-6.46-2.82-6.46-7.55ZM542.69,321.21c0-3.56-1.24-6.07-3.78-6.07-3.21,0-4.76,3.74-4.76,8.08,0,3.95,1.27,6.35,3.71,6.35,3.49,0,4.84-4.59,4.84-8.36Z"/>
        <path class="cls-2" d="M548.72,323.93c0-5.61,3.39-10.52,9-10.52,1.91,0,3.95.64,4.98,1.45l-.88,4.8h-1.09c0-3.39-1.41-4.48-3.35-4.48-3.78,0-5.58,4.16-5.58,8.15,0,3.49,1.38,5.58,3.99,5.58,2.22,0,3.99-1.48,5.05-3.18l.78.6c-1.59,3.35-4.13,4.98-6.85,4.98-3.67,0-6.04-2.96-6.04-7.38Z"/>
        <path class="cls-2" d="M565.56,327.32l1.24-8.54c.28-2.05-.11-2.51-1.98-2.51l.18-1.13,4.06-1.24h1.48l-1.76,12.85c-.25,1.76-.14,2.19.49,2.19.49,0,1.09-.25,1.87-.88l.49.92c-.92,1.13-2.47,2.33-4.16,2.33-2.05,0-2.22-1.66-1.91-3.99ZM567.43,308.23c0-1.38,1.31-2.44,2.54-2.44,1.13,0,1.94.81,1.94,1.91,0,1.41-1.24,2.47-2.54,2.47-1.13,0-1.94-.85-1.94-1.94Z"/>
        <path class="cls-2" d="M574.45,323.76c0-5.79,3.49-10.34,8.72-10.34,4.2,0,6.32,2.82,6.32,7.34,0,5.58-3.21,10.55-8.58,10.55-4.06,0-6.46-2.82-6.46-7.55ZM586.24,321.21c0-3.56-1.24-6.07-3.78-6.07-3.21,0-4.76,3.74-4.76,8.08,0,3.95,1.27,6.35,3.71,6.35,3.49,0,4.84-4.59,4.84-8.36Z"/>
      </g>
    </g>
  </g>
</svg>