<?xml version="1.0" encoding="UTF-8"?>
<svg id="Capa_2" data-name="Capa 2" xmlns="http://www.w3.org/2000/svg" viewBox="0 0 577.75 187.97">
  <defs>
    <style>
      .cls-1 {
        fill: #fff8e5;
      }

      .cls-2 {
        fill: #01595a;
      }

      .cls-3 {
        fill: #29b3b6;
      }
    </style>
  </defs>
  <g id="Capa_1-2" data-name="Capa 1">
    <g>
      <path class="cls-3" d="M570.21,153.72c-2.22-1.74-4.67-2.9-7.23-2.9H124.21c-8.19,6.43-16.38,12.87-24.57,19.3,5.4.15,10.81.29,16.21.44-1.43.9-4.63,3.19-6.8,7.49-2.16,4.3-2.09,8.24-1.97,9.93h455.88c2.56,0,5.01-1.16,7.23-2.9,10.06-7.89,10.06-23.46,0-31.35Z"/>
      <g>
        <path class="cls-2" d="M41.12,16.48h-9.95c0-4.6-3.64-8.02-10.24-8.02-6.01,0-9.72,3.04-9.72,6.83s2.08,6.01,8.02,7.57l7.2,1.86c10.84,2.82,15.81,7.42,15.81,16.18,0,9.28-6.98,16.03-20.78,16.03S0,49.73,0,39.19h9.95c0,5.71,4.38,10.02,11.58,10.02s10.76-3.56,10.76-8.16c0-3.93-2.15-6.09-8.39-7.57l-6.9-1.63C5.34,29.09,1.19,23.53,1.19,15.44,1.19,6.53,8.31,0,21.08,0s20.04,6.75,20.04,16.48Z"/>
        <path class="cls-2" d="M102.43,28.5c0,17.81-10.98,28.43-26.42,28.43s-26.35-10.61-26.35-28.43S60.64,0,76,0s26.42,10.61,26.42,28.5ZM59.53,28.5c0,12.69,7.57,19.45,16.48,19.45s16.55-6.75,16.55-19.45-7.64-19.45-16.55-19.45-16.48,6.68-16.48,19.45Z"/>
        <path class="cls-2" d="M121.65.74v46.39h27.02v9.05h-36.59V.74h9.57Z"/>
        <path class="cls-2" d="M164.18.74v32.8c0,9.87,5.05,14.4,11.65,14.4s11.65-4.53,11.65-14.4V.74h9.28v32.95c0,14.77-7.2,23.23-21.08,23.23s-21.08-8.46-21.08-23.23V.74h9.57Z"/>
        <path class="cls-2" d="M256.37,20.78h-10.17c-.52-5.86-5.64-11.65-14.32-11.65s-15.59,6.68-15.59,19.37,6.9,19.37,15.59,19.37,13.8-5.79,14.32-11.65h10.17c-.37,10.46-9.28,20.71-24.34,20.71s-25.61-10.32-25.61-28.43S216.88,0,231.87,0s24.12,10.24,24.49,20.78Z"/>
        <path class="cls-2" d="M276.33.74v55.44h-9.57V.74h9.57Z"/>
        <path class="cls-2" d="M338.75,28.5c0,17.81-10.98,28.43-26.42,28.43s-26.35-10.61-26.35-28.43S296.97,0,312.33,0s26.42,10.61,26.42,28.5ZM295.86,28.5c0,12.69,7.57,19.45,16.48,19.45s16.55-6.75,16.55-19.45-7.64-19.45-16.55-19.45-16.48,6.68-16.48,19.45Z"/>
        <path class="cls-2" d="M356.57.74l26.35,30.43V.74h9.57v55.44h-9.57v-10.02l-24.94-28.8v38.82h-9.57V.74h8.16Z"/>
        <path class="cls-2" d="M445.79.74v9.13h-28.87v11.43h20.34v9.13h-20.34v16.62h29.17v9.13h-38.74V.74h38.45Z"/>
        <path class="cls-2" d="M495.37,16.48h-9.95c0-4.6-3.64-8.02-10.24-8.02-6.01,0-9.72,3.04-9.72,6.83s2.08,6.01,8.02,7.57l7.2,1.86c10.84,2.82,15.81,7.42,15.81,16.18,0,9.28-6.98,16.03-20.78,16.03s-21.45-7.2-21.45-17.74h9.95c0,5.71,4.38,10.02,11.58,10.02s10.76-3.56,10.76-8.16c0-3.93-2.15-6.09-8.39-7.57l-6.9-1.63c-11.65-2.75-15.81-8.31-15.81-16.4,0-8.91,7.12-15.44,19.89-15.44s20.04,6.75,20.04,16.48Z"/>
        <path class="cls-2" d="M18.63,72.74c18.63,0,29.69,10.24,29.69,27.76s-11.06,27.68-29.69,27.68H2.23v-55.44h16.4ZM18.18,119.35c12.39,0,20.19-6.75,20.19-18.85s-7.79-18.85-20.19-18.85h-6.38v37.7h6.38Z"/>
        <path class="cls-2" d="M96.41,72.74v9.13h-28.87v11.43h20.34v9.13h-20.34v16.62h29.17v9.13h-38.74v-55.44h38.45Z"/>
        <path class="cls-2" d="M173.9,88.48h-9.95c0-4.6-3.64-8.02-10.24-8.02-6.01,0-9.72,3.04-9.72,6.83s2.08,6.01,8.02,7.57l7.2,1.86c10.84,2.82,15.81,7.42,15.81,16.18,0,9.28-6.98,16.03-20.78,16.03s-21.45-7.2-21.45-17.74h9.95c0,5.71,4.38,10.02,11.58,10.02s10.76-3.56,10.76-8.16c0-3.93-2.15-6.09-8.39-7.57l-6.9-1.63c-11.65-2.75-15.81-8.31-15.81-16.4,0-8.91,7.12-15.44,19.89-15.44s20.04,6.75,20.04,16.48Z"/>
        <path class="cls-2" d="M235.21,100.5c0,17.81-10.98,28.43-26.42,28.43s-26.35-10.61-26.35-28.43,10.98-28.5,26.35-28.5,26.42,10.61,26.42,28.5ZM192.31,100.5c0,12.69,7.57,19.45,16.48,19.45s16.55-6.75,16.55-19.45-7.64-19.45-16.55-19.45-16.48,6.68-16.48,19.45Z"/>
        <path class="cls-2" d="M283.61,72.74v9.13h-29.17v12.77h20.63v9.13h-20.63v24.42h-9.57v-55.44h38.74Z"/>
        <path class="cls-2" d="M332.22,72.74v9.05h-17.52v46.39h-9.57v-46.39h-17.44v-9.05h44.53Z"/>
        <path class="cls-2" d="M345.44,72.74l11.21,39.04,12.25-39.04h10.98l11.88,39.04,11.65-39.04h9.87l-16.55,55.44h-10.02l-12.84-41.86-13.21,41.86h-9.35l-16.11-55.44h10.24Z"/>
        <path class="cls-2" d="M441.85,72.74l21.45,55.44h-9.95l-4.16-11.06h-25.83l-4.16,11.06h-9.65l21.52-55.44h10.76ZM445.79,108l-9.5-25.38-9.5,25.38h19Z"/>
        <path class="cls-2" d="M489.65,72.74c13.06,0,21.75,7.35,21.75,19.52,0,7.64-3.49,13.51-9.5,16.77l11.06,19.15h-11.28l-9.5-16.4c-.89.07-1.63.07-2.52.07h-10.09v16.33h-9.57v-55.44h19.67ZM488.24,102.8c7.64,0,13.29-3.41,13.29-10.54s-5.64-10.46-13.29-10.46h-8.68v21h8.68Z"/>
        <path class="cls-2" d="M561.43,72.74v9.13h-28.87v11.43h20.34v9.13h-20.34v16.62h29.17v9.13h-38.74v-55.44h38.45Z"/>
      </g>
      <g>
        <path class="cls-1" d="M156.29,165.42h-2.18c0-1.55-1.2-2.73-3.4-2.73-2.07,0-3.32,1.09-3.32,2.42s.7,2.03,2.66,2.55l2.31.63c2.86.76,4.28,2.07,4.28,4.54,0,2.62-1.94,4.52-5.83,4.52s-6-2.05-6-5.02h2.18c0,1.85,1.46,3.29,3.84,3.29s3.62-1.22,3.62-2.75c0-1.42-.7-2.16-2.73-2.68l-2.23-.55c-3.16-.79-4.32-2.27-4.32-4.52,0-2.47,2.03-4.3,5.54-4.3s5.56,1.9,5.56,4.58Z"/>
        <path class="cls-1" d="M169.9,171.29c0,3.51-2.25,6.11-5.89,6.11s-5.91-2.6-5.91-6.11,2.25-6.11,5.91-6.11,5.89,2.6,5.89,6.11ZM160.17,171.29c0,2.57,1.53,4.23,3.84,4.23s3.82-1.66,3.82-4.23-1.53-4.23-3.82-4.23-3.84,1.66-3.84,4.23Z"/>
        <path class="cls-1" d="M173.7,165.42v1.81c.57-1.18,1.72-2.05,3.34-2.05s3.01.83,3.73,2.38c.59-1.31,1.9-2.38,3.75-2.38,2.57,0,4.43,1.99,4.43,5.41v6.55h-1.96v-6.22c0-2.57-1.13-3.95-2.84-3.95s-2.81,1.55-2.81,3.91v6.26h-1.96v-6.22c0-2.57-1.13-3.95-2.84-3.95s-2.81,1.55-2.81,3.91l-.02-.17v6.44h-1.96v-11.72h1.96Z"/>
        <path class="cls-1" d="M202.26,171.29c0,3.51-2.25,6.11-5.89,6.11s-5.91-2.6-5.91-6.11,2.25-6.11,5.91-6.11,5.89,2.6,5.89,6.11ZM192.53,171.29c0,2.57,1.53,4.23,3.84,4.23s3.82-1.66,3.82-4.23-1.53-4.23-3.82-4.23-3.84,1.66-3.84,4.23Z"/>
        <path class="cls-1" d="M212.86,168.89h-2.03c-.02-1.09-.96-1.94-2.49-1.94s-2.31.7-2.31,1.53c0,.79.31,1.27,1.88,1.61l1.88.41c2.49.52,3.34,1.77,3.34,3.4,0,2.12-1.62,3.49-4.56,3.49-3.29,0-4.91-1.7-4.91-3.88h2.01c.02,1.2.96,2.09,2.99,2.09,1.68,0,2.44-.72,2.44-1.66s-.52-1.42-2.01-1.72l-1.99-.41c-2.36-.5-3.12-1.75-3.12-3.34,0-1.83,1.53-3.29,4.39-3.29s4.5,1.64,4.5,3.71Z"/>
        <path class="cls-1" d="M224.62,160.35v16.78h-1.96v-16.78h1.96Z"/>
        <path class="cls-1" d="M237.19,170.13v7h-1.96v-1.94c-.85,1.29-2.42,2.16-4.47,2.16-2.4,0-3.91-1.29-3.91-3.23s1.18-3.27,4.32-3.75l4.06-.63c-.02-1.7-1.09-2.71-2.97-2.71s-2.68.81-2.9,2.03h-2.03c.15-2.09,1.83-3.86,4.91-3.86s4.95,1.83,4.95,4.93ZM231.05,175.5c2.31,0,4.17-1.51,4.17-3.75v-.33l-3.6.57c-2.16.33-2.75,1.07-2.75,2.01,0,.87.79,1.51,2.18,1.51Z"/>
        <path class="cls-1" d="M252.96,160.16v1.68h-1.44c-1.05,0-1.51.5-1.51,1.46v2.12h2.49v1.68h-2.49v10.04h-1.96v-10.04h-1.77v-1.68h1.77v-2.14c0-1.96,1.18-3.12,3.19-3.12h1.72Z"/>
        <path class="cls-1" d="M256.17,165.42v6.2c0,2.51,1.13,3.88,2.86,3.88,1.57,0,2.79-1.33,2.97-3.34v-6.74h1.96v11.72h-1.96v-1.77c-.61,1.18-1.81,2.03-3.51,2.03-2.49,0-4.28-1.94-4.28-5.43v-6.55h1.96Z"/>
        <path class="cls-1" d="M277.53,171.13v.74h-9.54c.13,2.18,1.59,3.64,3.77,3.64,1.59,0,2.75-.61,3.29-1.66h2.14c-.76,2.07-2.73,3.49-5.43,3.49-3.51,0-5.89-2.4-5.89-6.11s2.38-6.04,5.83-6.04,5.83,2.29,5.83,5.94ZM275.43,170.26c-.24-2.01-1.75-3.23-3.73-3.23s-3.43,1.44-3.69,3.23h7.42Z"/>
        <path class="cls-1" d="M281.47,165.42v2.05c.72-1.35,2.16-2.29,4.43-2.29v2.09h-.74c-2.33,0-3.69,1.44-3.69,3.91v5.96h-1.96v-11.72h1.96Z"/>
        <path class="cls-1" d="M296.57,165.42v1.68h-.02l-7.07,8.36h7.2v1.68h-9.4v-1.68h.02l7-8.36h-6.92v-1.68h9.19Z"/>
        <path class="cls-1" d="M308.42,170.13v7h-1.96v-1.94c-.85,1.29-2.42,2.16-4.47,2.16-2.4,0-3.91-1.29-3.91-3.23s1.18-3.27,4.32-3.75l4.06-.63c-.02-1.7-1.09-2.71-2.97-2.71s-2.68.81-2.9,2.03h-2.03c.15-2.09,1.83-3.86,4.91-3.86s4.95,1.83,4.95,4.93ZM302.29,175.5c2.31,0,4.17-1.51,4.17-3.75v-.33l-3.6.57c-2.16.33-2.75,1.07-2.75,2.01,0,.87.79,1.51,2.18,1.51Z"/>
        <path class="cls-1" d="M327.33,167.34v-1.92h1.96v15.86h-1.96v-6.07c-.83,1.33-2.27,2.18-4.25,2.18-3.21,0-5.41-2.38-5.41-6.11s2.2-6.11,5.41-6.11c1.99,0,3.43.83,4.25,2.16ZM323.54,175.59c2.33,0,3.8-1.7,3.8-4.34s-1.46-4.34-3.8-4.34-3.8,1.77-3.8,4.34,1.55,4.34,3.8,4.34Z"/>
        <path class="cls-1" d="M333.64,165.42v6.2c0,2.51,1.13,3.88,2.86,3.88,1.57,0,2.79-1.33,2.97-3.34v-6.74h1.96v11.72h-1.96v-1.77c-.61,1.18-1.81,2.03-3.51,2.03-2.49,0-4.28-1.94-4.28-5.43v-6.55h1.96Z"/>
        <path class="cls-1" d="M355,171.13v.74h-9.54c.13,2.18,1.59,3.64,3.77,3.64,1.59,0,2.75-.61,3.29-1.66h2.14c-.76,2.07-2.73,3.49-5.43,3.49-3.51,0-5.89-2.4-5.89-6.11s2.38-6.04,5.83-6.04,5.83,2.29,5.83,5.94ZM352.9,170.26c-.24-2.01-1.75-3.23-3.73-3.23s-3.43,1.44-3.69,3.23h7.42Z"/>
        <path class="cls-1" d="M366.47,165.42v1.81c.57-1.18,1.72-2.05,3.34-2.05s3.01.83,3.73,2.38c.59-1.31,1.9-2.38,3.75-2.38,2.57,0,4.43,1.99,4.43,5.41v6.55h-1.96v-6.22c0-2.57-1.13-3.95-2.84-3.95s-2.81,1.55-2.81,3.91v6.26h-1.96v-6.22c0-2.57-1.13-3.95-2.84-3.95s-2.81,1.55-2.81,3.91l-.02-.17v6.44h-1.96v-11.72h1.96Z"/>
        <path class="cls-1" d="M386,165.42v6.2c0,2.51,1.13,3.88,2.86,3.88,1.57,0,2.79-1.33,2.97-3.34v-6.74h1.96v11.72h-1.96v-1.77c-.61,1.18-1.81,2.03-3.51,2.03-2.49,0-4.28-1.94-4.28-5.43v-6.55h1.96Z"/>
        <path class="cls-1" d="M407.36,171.13v.74h-9.54c.13,2.18,1.59,3.64,3.77,3.64,1.59,0,2.75-.61,3.29-1.66h2.14c-.76,2.07-2.73,3.49-5.43,3.49-3.51,0-5.89-2.4-5.89-6.11s2.38-6.04,5.83-6.04,5.83,2.29,5.83,5.94ZM405.27,170.26c-.24-2.01-1.75-3.23-3.73-3.23s-3.43,1.44-3.69,3.23h7.42Z"/>
        <path class="cls-1" d="M409.8,165.42l3.62,9.54,3.6-9.54h2.07l-4.58,11.72h-2.23l-4.58-11.72h2.09Z"/>
        <path class="cls-1" d="M430.95,171.13v.74h-9.54c.13,2.18,1.59,3.64,3.77,3.64,1.59,0,2.75-.61,3.29-1.66h2.14c-.76,2.07-2.73,3.49-5.43,3.49-3.51,0-5.89-2.4-5.89-6.11s2.38-6.04,5.83-6.04,5.83,2.29,5.83,5.94ZM428.85,170.26c-.24-2.01-1.75-3.23-3.73-3.23s-3.43,1.44-3.69,3.23h7.42Z"/>
        <path class="cls-1" d="M441.59,165.42v-3.75h1.96v3.75h2.71v1.68h-2.71v10.04h-1.96v-10.04h-2.33v-1.68h2.33Z"/>
        <path class="cls-1" d="M449.9,165.42v6.2c0,2.51,1.13,3.88,2.86,3.88,1.57,0,2.79-1.33,2.97-3.34v-6.74h1.96v11.72h-1.96v-1.77c-.61,1.18-1.81,2.03-3.51,2.03-2.49,0-4.28-1.94-4.28-5.43v-6.55h1.96Z"/>
        <path class="cls-1" d="M470.06,165.42v1.88c.61-1.2,1.92-2.12,3.73-2.12,2.6,0,4.47,1.92,4.47,5.41v6.55h-1.96v-6.2c0-2.51-1.22-3.88-3.03-3.88s-3.21,1.53-3.21,3.86v6.22h-1.96v-11.72h1.96Z"/>
        <path class="cls-1" d="M491.31,171.13v.74h-9.54c.13,2.18,1.59,3.64,3.77,3.64,1.59,0,2.75-.61,3.29-1.66h2.14c-.76,2.07-2.73,3.49-5.43,3.49-3.51,0-5.89-2.4-5.89-6.11s2.38-6.04,5.83-6.04,5.83,2.29,5.83,5.94ZM489.22,170.26c-.24-2.01-1.75-3.23-3.73-3.23s-3.43,1.44-3.69,3.23h7.42Z"/>
        <path class="cls-1" d="M502.29,167.34v-1.92h1.96v12.7c0,2.27-1.33,3.58-3.67,3.58h-5.74v-1.72h5.48c1.33,0,1.96-.63,1.96-1.88v-3.16c-.85,1.37-2.25,2.18-4.25,2.18-3.21,0-5.41-2.36-5.41-6.04s2.2-5.89,5.41-5.89c1.99,0,3.43.83,4.25,2.16ZM498.49,175.32c2.33,0,3.8-1.7,3.8-4.3s-1.46-4.12-3.8-4.12-3.8,1.68-3.8,4.12,1.55,4.3,3.8,4.3Z"/>
        <path class="cls-1" d="M517.58,171.29c0,3.51-2.25,6.11-5.89,6.11s-5.91-2.6-5.91-6.11,2.25-6.11,5.91-6.11,5.89,2.6,5.89,6.11ZM507.85,171.29c0,2.57,1.53,4.23,3.84,4.23s3.82-1.66,3.82-4.23-1.53-4.23-3.82-4.23-3.84,1.66-3.84,4.23Z"/>
        <path class="cls-1" d="M529.91,169.54h-2.09c-.15-1.42-1.53-2.64-3.27-2.64-2.18,0-3.73,1.7-3.73,4.39s1.55,4.36,3.73,4.36c1.75,0,3.12-1.2,3.27-2.64h2.09c-.2,2.38-2.36,4.39-5.37,4.39-3.49,0-5.8-2.36-5.8-6.11s2.31-6.11,5.8-6.11c3.01,0,5.17,1.99,5.37,4.36Z"/>
        <path class="cls-1" d="M533.92,162.62c0,.74-.57,1.35-1.35,1.35s-1.35-.61-1.35-1.35.54-1.35,1.35-1.35,1.35.59,1.35,1.35ZM533.55,165.26v11.87h-1.96v-11.87c.28.17.57.24.98.24.44,0,.74-.09.98-.24Z"/>
        <path class="cls-1" d="M547.08,171.29c0,3.51-2.25,6.11-5.89,6.11s-5.91-2.6-5.91-6.11,2.25-6.11,5.91-6.11,5.89,2.6,5.89,6.11ZM537.35,171.29c0,2.57,1.53,4.23,3.84,4.23s3.82-1.66,3.82-4.23-1.53-4.23-3.82-4.23-3.84,1.66-3.84,4.23Z"/>
      </g>
    </g>
  </g>
</svg>